<svg width="528" height="47" viewBox="0 0 528 47" fill="none" xmlns="http://www.w3.org/2000/svg">
<path d="M79.1669 25.311C79.1669 22.3621 80.0637 19.6717 81.8574 17.2396C83.651 14.7772 86.007 12.8316 88.9255 11.4027C91.8743 9.97391 94.9904 9.2595 98.2737 9.2595H136.077L141.64 14.0476L141.777 41.0432H136.305V14.0932H126.136C123.673 14.0932 121.393 14.61 119.296 15.6436C117.228 16.6772 115.587 18.0604 114.371 19.7933C113.185 21.4957 112.592 23.3197 112.592 25.2654V41.0888H107.12V25.311C107.12 23.0917 107.652 21.0245 108.716 19.1093C109.78 17.194 111.255 15.522 113.14 14.0932H97.9544C95.5832 14.0932 93.364 14.61 91.2967 15.6436C89.2599 16.6772 87.6335 18.0604 86.4174 19.7933C85.2318 21.4957 84.639 23.3197 84.639 25.2654V41.0888H79.1669V25.311Z" fill="black"/>
<path d="M172.891 41.0432V26.5878H150.592V41.0888H145.074V25.311C145.074 22.3621 145.971 19.6717 147.765 17.2396C149.558 14.7772 151.914 12.8316 154.833 11.4027C157.782 9.97391 160.898 9.2595 164.181 9.2595H172.663L178.226 14.0476L178.363 41.0432H172.891ZM172.891 21.9821V14.0932H163.907C161.992 14.0932 160.168 14.4428 158.435 15.142C156.702 15.8108 155.213 16.7532 153.966 17.9692C152.72 19.1549 151.808 20.4925 151.23 21.9821H172.891Z" fill="black"/>
<path d="M181.635 25.2654C181.635 22.4989 182.456 19.8845 184.098 17.422C185.77 14.9292 188.08 12.938 191.029 11.4483C193.978 9.92831 197.291 9.1683 200.97 9.1683H219.393V14.002H201.243C198.629 14.002 196.364 14.4276 194.449 15.2788C192.534 16.13 191.014 17.2092 189.889 18.5165C188.764 19.8237 187.974 21.2069 187.518 22.6661H219.393V24.9918C219.393 27.7582 218.556 30.3879 216.884 32.8807C215.243 35.3431 212.948 37.3344 209.999 38.8544C207.05 40.344 203.736 41.0888 200.058 41.0888H181.635V36.2552H199.784C202.429 36.2552 204.724 35.8296 206.67 34.9783C208.616 34.0967 210.151 33.0023 211.276 31.6951C212.4 30.3575 213.176 28.9438 213.601 27.4542H181.635V25.2654Z" fill="black"/>
<path d="M222.876 9.1683H228.302V41.0888H222.876V9.1683Z" fill="black"/>
<path d="M245.753 14.0475L251.362 9.25943H259.843C263.127 9.25943 266.228 9.97384 269.146 11.4027C272.095 12.8315 274.466 14.7771 276.26 17.2396C278.053 19.6716 278.95 22.3621 278.95 25.3109V41.0888H275.165V25.2653C275.165 23.1677 274.542 21.146 273.296 19.2004C272.049 17.2244 270.134 15.6131 267.55 14.3667C264.966 13.1203 261.774 12.4971 257.974 12.4971H249.538V41.0888L245.662 41.0432V41.1344L245.753 14.0475Z" fill="black"/>
<path d="M301.603 41.0432C297.681 41.0432 294.246 40.2528 291.297 38.6719C288.348 37.0911 286.098 35.1303 284.548 32.7894C282.998 30.4182 282.222 28.1381 282.222 25.9493V13.9107L287.922 9.30503H315.374V12.5883H286.098V23.4869H309.583V26.4053H286.326C286.326 27.8645 286.98 29.491 288.287 31.2846C289.595 33.0782 291.388 34.6135 293.668 35.8903C295.979 37.1367 298.547 37.7599 301.375 37.7599H315.374V41.0432H301.603Z" fill="black"/>
<path d="M336.029 40.952C332.381 40.952 329.067 40.192 326.088 38.6719C323.139 37.1215 320.829 35.1303 319.156 32.6982C317.515 30.2358 316.694 27.6973 316.694 25.0829C316.694 22.4685 317.515 19.9452 319.156 17.5132C320.829 15.0507 323.139 13.0595 326.088 11.5395C329.067 9.98904 332.381 9.21383 336.029 9.21383H354.452V12.4515H336.622C333.278 12.4515 330.389 13.1051 327.957 14.4123C325.525 15.7195 323.686 17.3612 322.44 19.3372C321.193 21.2828 320.57 23.1981 320.57 25.0829C320.57 26.9677 321.193 28.8982 322.44 30.8742C323.686 32.8198 325.525 34.4463 327.957 35.7535C330.389 37.0607 333.278 37.7143 336.622 37.7143H350.575V25.5845H339.768V22.7573H354.452V40.952H336.029Z" fill="black"/>
<path d="M357.753 36.2095V25.2197C357.753 22.2708 358.649 19.5804 360.443 17.1484C362.237 14.6859 364.593 12.7403 367.511 11.3115C370.46 9.88264 373.576 9.16823 376.859 9.16823H389.81L395.464 13.9563V24.9461C395.464 27.8949 394.568 30.6006 392.774 33.063C390.98 35.4951 388.609 37.4255 385.66 38.8543C382.742 40.2832 379.641 40.9976 376.358 40.9976H363.407L357.753 36.2095ZM376.312 37.8511C379.048 37.8511 381.587 37.2583 383.927 36.0727C386.268 34.8871 388.123 33.3062 389.491 31.3302C390.889 29.3542 391.588 27.2413 391.588 24.9917V12.3147H376.905C374.169 12.3147 371.63 12.9075 369.29 14.0931C366.949 15.2787 365.079 16.8596 363.681 18.8356C362.313 20.8116 361.629 22.9245 361.629 25.1741V37.8511H376.312ZM375.126 3.33133L379.048 0.184875H384.52L377.954 5.61137L375.126 3.33133Z" fill="black"/>
<path d="M418.101 40.8608C414.453 40.8608 411.14 40.1008 408.16 38.5807C405.211 37.0303 402.901 35.0391 401.229 32.607C399.587 30.1446 398.767 27.6061 398.767 24.9917C398.767 22.3773 399.587 19.854 401.229 17.422C402.901 14.9595 405.211 12.9683 408.16 11.4483C411.14 9.89784 414.453 9.12263 418.101 9.12263H436.524V12.4059H418.694C415.441 12.4059 412.599 13.0291 410.167 14.2755C407.735 15.5219 405.865 17.118 404.558 19.0636C403.281 21.0092 402.643 22.9853 402.643 24.9917C402.643 26.9677 403.281 28.9286 404.558 30.8742C405.865 32.8198 407.735 34.4311 410.167 35.7079C412.599 36.9543 415.441 37.5775 418.694 37.5775H436.524V40.8608H418.101Z" fill="black"/>
<path d="M440.783 9.16823H444.659V41.0888H440.783V9.16823Z" fill="black"/>
<path d="M448.91 36.2095V25.2197C448.91 22.2708 449.806 19.5804 451.6 17.1484C453.394 14.6859 455.75 12.7403 458.668 11.3115C461.617 9.88264 464.733 9.16823 468.016 9.16823H480.967L486.621 13.9563V24.9461C486.621 27.8949 485.725 30.6006 483.931 33.063C482.137 35.4951 479.766 37.4255 476.817 38.8543C473.899 40.2832 470.798 40.9976 467.515 40.9976H454.564L448.91 36.2095ZM467.469 37.8511C470.205 37.8511 472.744 37.2583 475.084 36.0727C477.425 34.8871 479.28 33.3062 480.648 31.3302C482.046 29.3542 482.745 27.2413 482.745 24.9917V12.3147H468.062C465.326 12.3147 462.787 12.9075 460.447 14.0931C458.106 15.2787 456.236 16.8596 454.838 18.8356C453.47 20.8116 452.786 22.9245 452.786 25.1741V37.8511H467.469Z" fill="black"/>
<path d="M489.924 25.2653C489.924 22.4989 490.744 19.8844 492.386 17.422C494.058 14.9291 496.368 12.9379 499.317 11.4483C502.266 9.92824 505.58 9.16823 509.258 9.16823H527.681V12.4059H508.118C505.321 12.4059 502.92 12.9835 500.913 14.1387C498.937 15.2635 497.387 16.6772 496.262 18.3796C495.168 20.082 494.453 21.7844 494.119 23.4869H527.681V24.9917C527.681 27.7581 526.845 30.3878 525.173 32.8806C523.531 35.3431 521.236 37.3343 518.287 38.8543C515.338 40.344 512.025 41.0888 508.346 41.0888H489.924V37.8511H509.623C512.42 37.8511 514.822 37.2735 516.828 36.1183C518.834 34.9631 520.385 33.5342 521.479 31.8318C522.574 30.1294 523.288 28.427 523.623 26.7245H489.924V25.2653Z" fill="black"/>
<path d="M46.9939 23.2422C46.9939 24.8575 46.8284 26.4404 46.5158 27.9687C46.0377 30.3077 45.2082 32.5214 44.0906 34.5551C43.4429 35.7417 42.689 36.8617 41.8533 37.9109C40.3087 39.8536 38.4679 41.5497 36.3941 42.9305C34.5308 44.1758 32.4795 45.1724 30.2934 45.8678C27.9846 46.6017 25.5268 46.9939 22.9769 46.9939H22.9872V47H0V39.9244H22.9892C26.7159 39.9244 30.1627 38.7216 32.9556 36.6878C34.11 35.8509 35.1499 34.8663 36.055 33.7726C37.5383 31.9775 38.6497 29.8669 39.2709 27.5664C39.6447 26.1856 39.8429 24.7382 39.8429 23.2422H46.9939Z" fill="black"/>
<path d="M23.5 19.9515C25.4769 19.9515 27.0795 21.5372 27.0795 23.4933C27.0795 25.4494 25.4769 27.0351 23.5 27.0352C21.5231 27.0352 19.9204 25.4494 19.9204 23.4933C19.9204 21.5372 21.5231 19.9515 23.5 19.9515Z" fill="black"/>
<path d="M47 7.0756H24.0108C14.7146 7.0756 7.15088 14.5595 7.15088 23.7578H0C0 10.6538 10.7693 0 24.0108 0H47V7.0756Z" fill="black"/>
</svg>
