<svg width="47" height="47" viewBox="0 0 47 47" fill="none" xmlns="http://www.w3.org/2000/svg">
<path d="M46.9939 23.2422C46.9939 24.8575 46.8284 26.4404 46.5158 27.9687C46.0377 30.3077 45.2082 32.5214 44.0906 34.5551C43.4429 35.7417 42.689 36.8617 41.8533 37.9109C40.3087 39.8536 38.4679 41.5497 36.3941 42.9305C34.5308 44.1758 32.4795 45.1724 30.2934 45.8678C27.9846 46.6017 25.5268 46.9939 22.9769 46.9939H22.9872V47H0V39.9244H22.9892C26.7159 39.9244 30.1627 38.7216 32.9556 36.6878C34.11 35.8509 35.1499 34.8663 36.055 33.7726C37.5383 31.9775 38.6498 29.8669 39.2709 27.5664C39.6447 26.1856 39.8429 24.7382 39.8429 23.2422H46.9939Z" fill="black"/>
<path d="M23.5 19.9515C25.4769 19.9515 27.0795 21.5372 27.0795 23.4933C27.0795 25.4494 25.4769 27.0351 23.5 27.0352C21.5231 27.0352 19.9204 25.4494 19.9204 23.4933C19.9204 21.5372 21.5231 19.9515 23.5 19.9515Z" fill="black"/>
<path d="M47 7.0756H24.0108C14.7146 7.0756 7.15088 14.5595 7.15088 23.7578H0C0 10.6538 10.7693 0 24.0108 0H47V7.0756Z" fill="black"/>
</svg>
